<?xml version="1.0" encoding="UTF-8" standalone="no"?>
<svg
   xmlns:dc="http://purl.org/dc/elements/1.1/"
   xmlns:cc="http://creativecommons.org/ns#"
   xmlns:rdf="http://www.w3.org/1999/02/22-rdf-syntax-ns#"
   xmlns:svg="http://www.w3.org/2000/svg"
   xmlns="http://www.w3.org/2000/svg"
   viewBox="0 0 566.9292 377.95279"
   height="377.95279"
   width="566.9292"
   xml:space="preserve"
   id="svg2"
   version="1.1"><metadata
     id="metadata8"><rdf:RDF><cc:Work
         rdf:about=""><dc:format>image/svg+xml</dc:format><dc:type
           rdf:resource="http://purl.org/dc/dcmitype/StillImage" /></cc:Work></rdf:RDF></metadata><defs
     id="defs6" /><g
     transform="matrix(1.3333333,0,0,-1.3333333,0,377.9528)"
     id="g10"><path
       id="path12"
       style="fill:#f42121;fill-opacity:1;fill-rule:nonzero;stroke:none"
       d="m 293.3677,175.4626 c -1.8196,-4.3135 -5.3496,-5.5619 -9.7237,-5.6367 -8.7443,-0.1491 -3.0529,0.4147 1.1296,21.5379 2.4982,12.6094 -10.0134,10.0622 -16.8026,-18.2463 -0.9737,-4.0604 -2.1178,-2.9078 -10.9849,-2.9687 -2.7779,-0.0193 -3.1467,0.2826 2.5512,24.0706 2.607,10.8791 3.015,16.2729 10.0857,16.4597 5.5548,0.1465 7.543,1.01 6.6634,-2.0118 -2.8911,-9.9292 -2.6544,-7.7213 3.0983,-2.1024 5.5681,5.438 17.6972,8.3602 19.4006,-1.1812 1.2523,-1.908 0.2599,-16.456 -5.4176,-29.9211" /><path
       id="path14"
       style="fill:#f42121;fill-opacity:1;fill-rule:nonzero;stroke:none"
       d="m 139.1995,224.1652 c 0.705,-8.4093 -3.6969,-13.5094 -12.0895,-14.1092 -7.2558,-0.5179 -5.5828,7.119 -14.0003,-36.4583 -0.9354,-4.8427 -2.8046,-2.6839 -11.9341,-3.189 -2.6878,-0.1491 -3.1232,-0.009 2.2419,22.3707 4.4773,18.6778 5.3181,18.8397 2.177,18.7733 -4.032,-0.085 -8.0487,0.1318 -11.9134,-1.406 -1.3448,-0.5349 -2.3806,-0.3781 -1.6138,1.5665 2.5892,6.5695 2.4358,11.3289 9.6698,11.4854 26.9782,0.5831 37.3329,0.9626 37.4624,0.9666" /><path
       id="path16"
       style="fill:#f42121;fill-opacity:1;fill-rule:nonzero;stroke:none"
       d="m 151.9787,178.8075 c -3.3304,-2.0172 -7.3571,-9.5004 -16.7224,-9.3053 -13.4975,0.2817 -7.3353,22.4087 -2.4027,35.0858 1.7266,4.4368 4.7316,6.6742 9.5749,6.4225 7.8111,-0.4057 5.9337,2.9137 1.2379,-13.7172 -5.7039,-20.1994 2.9525,-17.1853 7.8576,-8.2944 8.7276,15.8187 5.2829,22.4523 11.3049,21.7448 7.109,-0.8351 9.7633,1.5208 8.8922,-2.0364 -9.8359,-40.1638 -5.0133,-38.6997 -17.9617,-38.7144 -3.6743,-0.004 -3.0722,-0.5605 -1.7807,8.8146" /><path
       id="path18"
       style="fill:#f42121;fill-opacity:1;fill-rule:nonzero;stroke:none"
       d="m 189.4317,200.886 c 20.092,26.5694 19.1954,-4.1131 12.6817,-3.4186 -3.2826,0.3495 -5.7685,-1.1705 -8.0346,-3.2789 -9.4833,-8.8225 -9.1777,-22.0345 -11.7235,-23.491 -1.7872,-1.0224 -4.6114,-0.2775 -6.9789,-0.278 -5.0842,-0.001 -5.1928,0.0272 -4.2797,5.0638 5.9584,32.8861 7.5568,35.3395 15.6019,35.4007 6.942,0.0533 6.2053,1.1784 2.7331,-9.998" /><path
       id="path20"
       style="fill:#f42121;fill-opacity:1;fill-rule:nonzero;stroke:none"
       d="m 251.7763,205.6311 c 3.1624,4.5627 4.1735,6.7581 6.2516,10.7794 -2.4602,-5.804 -7.0529,-14.2212 -12.2015,-18.9856 -1.3232,-1.2133 -1.3141,-3.2372 -0.1006,-4.542 0.1604,-0.1735 -4.1777,-6.4412 -8.5275,-7.6226 -3.4373,-0.9587 -5.8385,1.0876 -6.749,2.0613 -0.2491,0.2608 -0.2545,0.6307 -0.0283,0.8975 1.4218,1.6367 6.275,7.4885 11.3726,6.6203 0.4583,-0.0647 0.701,0.2551 1.3787,0.8801 0.4709,0.4108 0.1795,1.1458 -0.4371,1.1733 -1.3549,0.0357 -4.5017,1.1219 -3.7766,2.2575 1.0177,1.597 4.068,6.6864 8.1817,7.0551 0.3342,0.04 0.5074,0.218 1.6531,1.4823 0.3997,0.4274 0.091,1.1273 -0.4714,1.1202 -1.0207,0.005 -3.4741,0.5369 -2.9948,1.5991 0.7022,1.5395 2.7567,6.0355 6.0007,6.9567 0.3509,0.0925 0.472,0.3226 1.2798,1.812 0.2574,0.4957 -0.172,1.0709 -0.7341,0.9759 -0.1925,-0.0377 -0.3685,-0.0399 -0.5448,-0.0425 -1.1617,-0.0142 -2.0657,0.5017 -2.0657,0.5017 0.9497,2.8633 1.9154,4.4243 2.82,5.2634 1.7291,3.8055 3.5234,9.4249 3.9642,13.5309 -0.4212,-4.2469 -1.2455,-8.6216 -3.6337,-13.2279 1.7427,1.3422 3.1118,0.1803 3.399,1.1696 0.6568,2.3312 1.1733,4.6789 1.4513,6.2657 -0.1068,-1.2509 -0.6318,-4.2667 -1.3728,-6.8984 0.2994,-0.0669 0.4774,-0.1522 0.4774,-0.1522 0.002,-0.1406 -0.6945,-3.5113 -2.3973,-5.275 -0.2086,-0.1962 -0.2897,-0.7427 -1.4437,-2.7289 -0.2585,-0.4434 0.0479,-0.9848 0.576,-1.0128 2.6416,-0.1608 1.3624,-1.9367 4.8283,6.4491 -0.4207,-1.5361 -1.4922,-4.4714 -2.6742,-6.9854 0.1941,-0.0854 0.3183,-0.154 0.3189,-0.1718 0.0397,-0.3515 -2.0724,-5.887 -4.7996,-7.3466 -0.0173,-0.0181 -1.5265,-1.7266 -2.0481,-2.279 -0.3648,-0.3739 -0.1805,-1.0052 0.3314,-1.1223 1.7124,-0.3829 2.2153,-1.2041 2.7161,-0.4581" /><path
       id="path22"
       style="fill:#f42121;fill-opacity:1;fill-rule:nonzero;stroke:none"
       d="m 250.8083,226.4737 c -4.6295,-16.6195 -13.8923,-31.3971 -26.4557,-42.7308 -0.2605,-0.2506 -0.6829,-0.2379 -0.9332,0.005 -0.142,0.1389 -0.3946,0.646 0.006,1.0034 20.0792,18.135 26.4021,41.3226 26.0538,42.4622 -1.6365,5.5406 1.1375,8.8313 2.44,10.1857 0.3303,0.3387 0.9122,0.2401 1.1118,-0.1973 2.9514,-6.5622 -2.1042,-10.3223 -2.2224,-10.7283" /><path
       id="path24"
       style="fill:#f42121;fill-opacity:1;fill-rule:nonzero;stroke:none"
       d="m 227.9234,204.7303 c 0.3291,0.4266 0.718,0.2733 1.1616,-0.0204 1.0293,-0.7087 2.4497,-0.2333 2.8213,0.9683 3.7707,12.1561 0.1523,-0.8782 6.1594,18.0995 -3.2867,-12.8888 -3.617,-9.021 -0.7339,-11.5189 0.4094,-0.3645 1.0579,-0.1451 1.1211,0.4014 0.1285,0.9695 0.3921,2.3984 0.3734,2.4687 -0.6217,3.2477 1.3844,7.3911 1.3844,7.3911 0,0 0.1415,-0.0332 0.3535,-0.1007 1.1069,4.2908 1.4431,5.5619 1.527,5.8794 -3e-4,0.0354 0.0165,0.053 0.0165,0.0711 l 8e-4,-0.053 c -1.2756,-7.6717 -2.012,-5.0765 0.4564,-6.8581 0.4257,-0.2934 1.004,-0.0573 1.0684,0.4362 0.1947,1.2697 0.46,2.5577 0.4407,2.6805 -0.3798,2.2127 0.6404,5.0068 0.6228,5.0241 0,0 0.1936,-0.0159 0.512,-0.0819 0.4668,1.9944 1.2557,5.0496 1.4728,5.9499 -0.9873,-5.398 -1.5448,-5.8629 -0.7307,-6.2045 1.0788,-0.4442 1.7214,-1.1571 2.0661,-1.9803 -0.0859,2.6037 0.135,4.6129 1.1631,10.997 0.0663,0.3175 0.3455,1.9052 0.4113,2.3106 -0.03,-0.4227 -0.1426,-1.2688 -0.2877,-2.3267 -0.8493,-6.6101 -1.1271,-9.6761 -1.1957,-11.2082 0.639,-1.8573 -0.0357,-4.1715 -0.4263,-5.2328 -0.392,-1.0074 -1.9894,0.0633 -2.596,0.6891 -0.3923,0.4 -1.0587,0.1976 -1.1568,-0.3489 -0.2628,-1.4992 -0.3316,-1.641 -0.1335,-1.9378 1.9015,-2.8267 0.0198,-7.145 -0.771,-8.6334 -0.5499,-1.0449 -2.4894,0.6372 -3.1147,1.3861 -0.3756,0.4527 -1.0948,0.2679 -1.1934,-0.2965 -0.0811,-0.5295 -0.163,-1.0406 -0.2271,-1.4814 -0.064,-0.5465 2.7593,-3.89 -1.9814,-10.3379 -0.8127,-1.1192 -3.0121,1.6336 -3.5538,2.7175 -0.271,0.525 -1.0621,0.4797 -1.2486,-0.0859 -0.2211,-0.6185 -0.4116,-0.9025 -0.1772,-1.2869 2.7862,-4.646 -2.037,-10.1103 -3.566,-11.6252 -0.2616,-0.25 -0.6483,-0.2545 -0.9153,-0.0291 -4.7693,4.1629 -3.0209,9.2185 0.8765,14.178" /><path
       id="path26"
       style="fill:#f42121;fill-opacity:1;fill-rule:nonzero;stroke:none"
       d="m 230.1729,167.406 c -11.154,0.2622 -20.7286,8.7185 -22.4092,19.7484 -1.8825,12.3681 6.1775,23.4802 17.549,26.2193 0.7696,0.1848 1.1432,-0.8836 0.4473,-1.2589 -7.1785,-3.8712 -11.4472,-12.2082 -9.4533,-20.9778 4.1922,-18.4331 30.3432,-19.8365 36.4156,-1.7013 0.2528,0.7543 1.3731,0.5638 1.3229,-0.2296 -0.7815,-12.3137 -11.122,-22.1003 -23.8723,-21.8001" /><path
       id="path28"
       style="fill:#f42121;fill-opacity:1;fill-rule:nonzero;stroke:none"
       d="m 153.521,160.8987 c 0,-1.1542 -1.1684,-3.1447 -3.5045,-5.9709 -1.9615,-2.336 -3.9089,-4.6723 -5.8408,-7.0086 -2.7399,-3.3463 -4.2397,-5.423 -4.4994,-6.2297 -0.0578,-0.203 -0.1451,-0.3036 -0.2596,-0.3036 -0.1157,0 -0.1593,0.1443 -0.1299,0.4331 0.1735,1.2974 3.2162,5.552 9.129,12.763 0.9522,1.1818 1.7158,2.1776 2.2932,2.9852 0.7787,1.0953 1.1682,1.8453 1.1682,2.2498 0,0.1438 -0.0584,0.216 -0.1743,0.216 -0.3759,0 -1.0846,-0.6341 -2.126,-1.9037 -7.8698,-9.3166 -11.7034,-16.1666 -11.5013,-20.5503 0.0281,-1.0965 0.4207,-1.6444 1.1767,-1.6444 0.7265,0 1.4524,0.3897 2.1804,1.1684 1.2492,1.3261 2.0338,2.4806 2.3536,3.4614 -0.2889,0.6627 -0.4326,1.4848 -0.4326,2.4656 0,0.3747 0.0434,0.7206 0.1301,1.0389 0.4031,1.7305 1.0661,2.5957 1.9896,2.5957 0.8071,0 1.2116,-0.5627 1.2116,-1.6872 0,-0.8377 -0.3317,-1.9758 -0.9953,-3.418 -0.7208,-1.5577 -1.7591,-3.1153 -3.1147,-4.6732 -1.0964,-1.2682 -2.3218,-1.9029 -3.6779,-1.9029 -1.9032,0 -2.8548,1.1245 -2.8548,3.3741 0,2.3944 1.0091,5.6678 3.0283,9.8212 1.8745,3.8074 3.9943,7.2246 6.3598,10.2537 2.4806,3.1434 4.2973,4.6576 5.451,4.5431 0.5771,-0.0584 1.0817,-0.3614 1.5148,-0.9088 0.4898,-0.6639 0.8652,-1.0533 1.1248,-1.1679" /><path
       id="path30"
       style="fill:#f42121;fill-opacity:1;fill-rule:nonzero;stroke:none"
       d="m 160.357,142.3814 c 0.4612,0.5471 0.7356,0.8218 0.8215,0.8218 0.0286,0 0.0434,-0.015 0.0434,-0.0431 0,-0.4326 -0.4479,-1.298 -1.3411,-2.596 -0.375,-0.6055 -1.01,-1.5004 -1.9037,-2.6821 -1.154,-1.3847 -2.0333,-2.0772 -2.6394,-2.0772 -0.8648,0 -1.5213,0.2162 -1.9681,0.6488 -0.4478,0.4334 -0.6276,0.9524 -0.5411,1.5579 0.0289,0.4037 0.4031,1.529 1.1254,3.3747 -0.8374,-1.0673 -1.6736,-2.1201 -2.5096,-3.1581 -1.4139,-1.76 -2.4083,-2.6391 -2.9851,-2.6391 -1.5577,0 -2.2363,0.5766 -2.0333,1.7303 0.1145,0.7203 0.6772,2.2351 1.6872,4.5428 -0.1157,0.2877 -0.1157,0.5046 0,0.6489 1.7881,2.6529 2.9562,3.9804 3.5044,3.9804 0.5468,0 1.211,-0.4045 1.99,-1.2118 -1.1243,-1.4131 -1.9469,-2.4948 -2.4659,-3.2449 -0.9524,-1.3558 -1.5874,-2.4803 -1.904,-3.3743 -0.1443,-0.4042 -0.2163,-0.707 -0.2163,-0.9085 0,-0.519 0.3824,-0.3895 1.1472,0.3895 0.7633,0.7786 1.8666,2.1342 3.3091,4.0668 1.7014,2.3074 2.6674,3.5912 2.899,3.8506 0.3459,0.4037 0.7064,0.6055 1.0814,0.6055 0.5471,0 1.1535,-0.3895 1.8173,-1.1679 -2.7694,-3.5473 -4.1536,-6.2019 -4.1536,-7.9611 0,-0.4612 0.1148,-0.6922 0.3461,-0.6922 0.173,0 0.4468,0.1584 0.8215,0.4762 0.6064,0.5766 1.3125,1.3842 2.1203,2.4228 0.6636,0.8657 1.3119,1.7444 1.9474,2.6393" /><path
       id="path32"
       style="fill:#f42121;fill-opacity:1;fill-rule:nonzero;stroke:none"
       d="m 165.8937,136.1511 c -1.5619,-0.3166 -3.5725,-1.2395 -6.0316,-2.7688 -2.7479,-1.6728 -4.9756,-3.4895 -6.683,-5.4511 -1.0998,-1.2693 -1.6491,-2.4083 -1.6491,-3.4185 0,-0.7206 0.3475,-1.0809 1.0417,-1.0809 0.5785,0 1.3745,0.2744 2.3862,0.8215 1.9389,1.0672 4.2675,3.1447 6.9863,6.2303 2.5755,2.9137 3.8916,4.8018 3.9495,5.6675 z m 5.2353,6.4027 c -0.1154,-1.0959 -0.8946,-2.8982 -2.3366,-5.4074 1.4712,-0.2594 2.2062,-1.1968 2.2062,-2.8125 0,-0.4604 -0.0794,-0.8938 -0.2381,-1.2983 -0.1585,-0.4031 -0.3101,-0.6046 -0.4536,-0.6046 -0.0861,0 -0.1451,0.187 -0.1732,0.5618 -0.0286,1.0103 -0.1295,1.7022 -0.3024,2.0766 -0.2889,0.5486 -0.8516,0.8224 -1.6881,0.8224 -1.7299,-3.2593 -3.8069,-6.2303 -6.2294,-8.9124 -3.1734,-3.5476 -6.0145,-5.3218 -8.5235,-5.3218 -0.6922,0 -1.5142,0.3895 -2.4658,1.1682 -0.9522,0.7784 -1.4276,1.5145 -1.4276,2.2067 0,0.8652 0.9085,2.1776 2.7253,3.9368 1.3847,1.2977 2.7405,2.4086 4.0668,3.3316 1.5577,1.0672 3.1434,1.9757 4.7588,2.7252 0.4335,0.2313 2.0484,0.9235 4.8459,2.0766 0.9802,0.404 1.7158,2.077 2.2067,5.0188 -3.0869,-3.8361 -5.4082,-5.6965 -6.9658,-5.5809 -1.5866,0.1145 -2.3791,0.836 -2.3791,2.1629 0,0.7497 0.3166,1.6446 0.9516,2.683 0.8657,1.4125 2.0766,2.8553 3.6343,4.3256 1.8745,1.7595 3.4324,2.6394 4.6726,2.6394 0.4031,-0.0579 0.8498,-0.2889 1.3411,-0.692 0.4898,-0.4045 0.8067,-0.8078 0.9518,-1.2112 0.0862,-0.26 0.1299,-0.491 0.1299,-0.692 0,-0.3186 -0.1015,-0.4767 -0.3031,-0.4767 -0.1443,0 -0.2746,0.0722 -0.3897,0.2165 -0.1151,0.1446 -0.4612,0.1877 -1.0378,0.1301 -0.5485,-0.0864 -0.9811,-0.2021 -1.2983,-0.3466 -0.981,-0.4612 -2.048,-1.226 -3.2014,-2.2924 -1.1537,-1.0675 -2.0625,-2.1634 -2.7252,-3.2882 -0.2895,-0.491 -0.4335,-0.9814 -0.4335,-1.4709 0,-0.5482 0.1877,-0.8223 0.563,-0.8223 0.3166,0 0.7061,0.1873 1.1679,0.5626 1.9902,1.5279 4.0671,3.6916 6.2302,6.4897 1.5288,0 2.2349,-0.6344 2.1201,-1.9043" /><path
       id="path34"
       style="fill:#f42121;fill-opacity:1;fill-rule:nonzero;stroke:none"
       d="m 175.2817,158.8652 c 0,-0.0584 -0.3461,-0.4547 -1.038,-1.19 -0.692,-0.735 -1.0389,-1.4066 -1.0389,-2.0121 0,-0.4325 0.2168,-0.8005 0.6494,-1.1029 0.4323,-0.3028 0.6489,-0.5839 0.6489,-0.8436 0,-0.9235 -0.4474,-1.3842 -1.3411,-1.3842 -0.4618,0 -0.9085,0.144 -1.3411,0.4326 -0.4326,0.2874 -0.6491,0.6486 -0.6491,1.0809 0,1.8745 0.8799,3.4324 2.6393,4.6726 0.4904,0.3467 0.8938,0.519 1.211,0.519 0.1732,0 0.2596,-0.0578 0.2596,-0.1723" /><path
       id="path36"
       style="fill:#f42121;fill-opacity:1;fill-rule:nonzero;stroke:none"
       d="m 181.2084,145.1503 c -0.4348,-0.1157 -0.8697,-0.2889 -1.3056,-0.519 -1.2467,-0.6925 -2.4942,-1.7028 -3.7409,-3.0288 -1.3343,-1.3842 -2.2195,-2.668 -2.6538,-3.8503 -0.0873,-0.2319 -0.1301,-0.4479 -0.1301,-0.6495 0,-0.6054 0.2316,-0.9085 0.6962,-0.9085 1.0729,0 3.1172,2.1053 6.1336,6.3168 0.2613,0.8073 0.5941,1.6877 1.0006,2.6393 z m 22.3676,18.0417 c 0,-0.203 -0.1159,-0.3036 -0.3464,-0.3036 -0.0861,0 -0.1726,0.0292 -0.2588,0.087 -0.7789,0.4612 -1.5868,0.6919 -2.4233,0.6919 -2.192,0 -5.0338,-1.9615 -8.5229,-5.8836 -2.8846,-3.2604 -5.4083,-6.8652 -7.5714,-10.8161 -2.1631,-3.9518 -3.2448,-6.9809 -3.2448,-9.0856 0,-1.1251 0.3166,-1.6878 0.9513,-1.6878 0.3748,0 0.7793,0.2016 1.2118,0.6061 1.1534,0.9799 2.5237,2.5809 4.11,4.8022 0.4331,0.5768 0.7205,0.8654 0.8657,0.8654 0.0578,0 0.0864,-0.0434 0.0864,-0.1301 0,-0.5188 -0.5774,-1.5571 -1.7308,-3.1147 -0.923,-1.2119 -1.7019,-2.1351 -2.336,-2.7692 -0.7506,-0.7495 -1.5435,-1.1248 -2.3794,-1.1248 -0.7217,0 -1.3204,0.2812 -1.7958,0.8442 -0.4759,0.5621 -0.7135,1.3189 -0.7135,2.2705 0,0.5485 0.057,1.1395 0.1727,1.7745 -2.077,-3.2598 -3.822,-4.8892 -5.2348,-4.8892 -0.6641,0 -1.2764,0.3013 -1.8394,0.902 -0.5618,0.6015 -0.8436,1.1455 -0.8436,1.6325 0,1.9471 1.0968,4.0013 3.2885,6.1633 2.192,2.1614 4.2109,3.2281 6.0574,3.2001 0.3166,0 0.6199,-0.1154 0.9085,-0.3461 2.4514,5.1624 5.0187,9.3157 7.7011,12.4602 2.8265,3.3168 6.2436,4.9754 10.2532,4.9754 0.4607,0 1.1251,-0.1015 1.99,-0.3031 1.0953,-0.2315 1.6443,-0.5045 1.6443,-0.8214" /><path
       id="path38"
       style="fill:#f42121;fill-opacity:1;fill-rule:nonzero;stroke:none"
       d="m 195.3986,145.5829 c -0.4909,0 -0.9952,-0.1877 -1.5142,-0.5624 -0.8649,-0.6058 -1.9038,-1.7167 -3.1147,-3.331 -1.414,-1.9043 -2.1203,-3.3611 -2.1203,-4.3705 0,-0.9229 0.5048,-1.3844 1.5139,-1.3844 1.3564,0 2.8267,0.9952 4.4136,2.9857 1.4989,1.9038 2.2501,3.5759 2.2501,5.0185 0,1.0958 -0.4768,1.6441 -1.4284,1.6441 z m 1.8173,0.2596 c 0.3745,-0.5777 0.5627,-1.2546 0.5627,-2.0333 0,-2.3947 -1.2265,-4.659 -3.6777,-6.7926 -1.529,-1.3556 -2.9423,-2.0047 -4.24,-1.9469 -0.8946,0.0579 -1.6297,0.4181 -2.2068,1.0817 -0.5768,0.6628 -0.8648,1.514 -0.8648,2.5521 0,0.8937 0.2162,1.8317 0.6491,2.8125 0.6341,1.4998 1.6577,2.8766 3.0716,4.1321 1.4131,1.2546 2.7397,1.8816 3.9801,1.8816 0.1727,0 0.4612,-0.1803 0.8657,-0.5406 0.4031,-0.3611 0.7784,-0.5703 1.1245,-0.6276 0.2594,0.0281 0.5043,-0.1442 0.7356,-0.519" /><path
       id="path40"
       style="fill:#f42121;fill-opacity:1;fill-rule:nonzero;stroke:none"
       d="m 204.7005,136.1511 c -5.1633,-1.6438 -9.388,-4.4563 -12.6756,-8.4364 -1.067,-1.2983 -1.6013,-2.4228 -1.6013,-3.3744 0,-0.606 0.303,-0.9085 0.9082,-0.9085 0.6057,0 1.4281,0.2744 2.4656,0.8215 1.9335,1.0672 4.2553,3.1447 6.9658,6.2303 2.5668,2.9137 3.8787,4.8018 3.9373,5.6675 z m 5.6679,8.1341 c -0.1732,-1.8465 -1.0967,-4.2259 -2.7692,-7.1388 1.4707,-0.2594 2.2065,-1.1968 2.2065,-2.8125 0,-0.4604 -0.0796,-0.8938 -0.2386,-1.2983 -0.1585,-0.4031 -0.3096,-0.6046 -0.4536,-0.6046 -0.087,0 -0.1448,0.187 -0.1735,0.5618 -0.0286,1.0103 -0.1298,1.7022 -0.3024,2.0766 -0.2892,0.5486 -0.8516,0.8224 -1.6875,0.8224 -1.7311,-3.2593 -3.8066,-6.2303 -6.2294,-8.9124 -3.1734,-3.5476 -6.0143,-5.3218 -8.5238,-5.3218 -0.6916,0 -1.5134,0.3895 -2.4658,1.1682 -0.9519,0.7784 -1.4273,1.5145 -1.4273,2.2067 0,0.8652 0.9085,2.1776 2.7252,3.9368 1.3848,1.2977 2.7406,2.4086 4.0669,3.3316 1.5579,1.0672 3.1436,1.9757 4.7591,2.7252 0.4326,0.2313 2.0475,0.9235 4.8455,2.0766 0.4323,0.173 0.923,1.067 1.4704,2.6825 0.5196,1.4998 0.7792,2.5962 0.7792,3.2884 0,0.1435 -0.0286,0.2166 -0.0867,0.2166 -0.0298,0 -0.419,-0.4912 -1.1679,-1.4712 -2.827,-3.7788 -4.7305,-5.6679 -5.7107,-5.6679 -1.529,0 -2.2065,0.5763 -2.0333,1.7306 0.1437,0.8359 0.6494,2.2499 1.514,4.2398 -0.2021,0.0283 -0.1295,0.288 0.216,0.7789 1.6152,2.3936 2.7114,3.591 3.2882,3.591 0.5479,0 1.2251,-0.4045 2.0333,-1.2118 -0.8082,-0.9803 -1.6158,-1.9613 -2.4225,-2.9418 -0.894,-1.2113 -1.4995,-2.2496 -1.8173,-3.1147 -0.1154,-0.4045 -0.1726,-0.7067 -0.1726,-0.9085 0,-0.5196 0.3963,-0.3756 1.1894,0.4325 0.7931,0.807 2.3865,2.7542 4.7798,5.8405 0.7506,0.9522 1.3714,1.4284 1.8606,1.4284 0.2305,0 0.5043,-0.1593 0.8227,-0.4762 0.0572,-0.0584 0.2307,-0.3178 0.5193,-0.7793 0.1732,-0.3172 0.3744,-0.4753 0.606,-0.4753" /><path
       id="path42"
       style="fill:#f42121;fill-opacity:1;fill-rule:nonzero;stroke:none"
       d="m 233.6865,142.3814 c 0.4609,0.5471 0.7359,0.8218 0.8218,0.8218 0.0286,0 0.0433,-0.015 0.0433,-0.0431 0,-0.4326 -0.4473,-1.298 -1.3413,-2.596 -0.3751,-0.6055 -1.0097,-1.5004 -1.9038,-2.6821 -1.154,-1.3847 -2.0333,-2.0772 -2.6388,-2.0772 -0.8657,0 -1.5224,0.2162 -1.9689,0.6488 -0.4473,0.4334 -0.6276,0.9524 -0.5408,1.5579 0.0286,0.4037 0.4042,1.529 1.1253,3.3747 -0.8371,-1.0673 -1.673,-2.1201 -2.5092,-3.1581 -1.4134,-1.76 -2.4089,-2.6391 -2.9858,-2.6391 -1.5582,0 -2.2356,0.5766 -2.0332,1.7303 0.1153,0.7203 0.6769,2.2351 1.6871,4.5428 -0.1151,0.2877 -0.1151,0.5046 0,0.6489 1.7878,2.6529 2.9563,3.9804 3.5045,3.9804 0.5471,0 1.2113,-0.4045 1.9902,-1.2118 -1.1248,-1.4131 -1.9471,-2.4948 -2.4658,-3.2449 -0.9519,-1.3558 -1.5869,-2.4803 -1.9035,-3.3743 -0.1451,-0.4042 -0.2163,-0.707 -0.2163,-0.9085 0,-0.519 0.3827,-0.3895 1.1455,0.3895 0.7648,0.7786 1.8675,2.1342 3.3103,4.0668 1.7022,2.3074 2.6674,3.5912 2.899,3.8506 0.3461,0.4037 0.7064,0.6055 1.0817,0.6055 0.5473,0 1.1531,-0.3895 1.8173,-1.1679 -2.7692,-3.5473 -4.1536,-6.2019 -4.1536,-7.9611 0,-0.4612 0.1148,-0.6922 0.3455,-0.6922 0.1732,0 0.4476,0.1584 0.8223,0.4762 0.6055,0.5766 1.3122,1.3842 2.1201,2.4228 0.6624,0.8657 1.3118,1.7444 1.9471,2.6393" /><path
       id="path44"
       style="fill:#f42121;fill-opacity:1;fill-rule:nonzero;stroke:none"
       d="m 244.7192,139.9195 c -1.9216,-3.0325 -3.4988,-4.5907 -4.7299,-4.6769 -1.6067,-0.1153 -2.4089,0.66 -2.4089,2.3253 0,1.4641 0.5806,3.2304 1.7431,5.2974 0.4518,0.8614 0.6791,1.4068 0.6791,1.6364 0,0.0862 -0.0286,0.1296 -0.0861,0.1296 -0.4913,0 -1.8031,-1.4001 -3.9362,-4.197 -1.2989,-1.7016 -2.0778,-3.1297 -2.3375,-4.2829 -0.0575,-0.2596 -0.2738,-0.3897 -0.6494,-0.3897 -0.4036,0 -0.7356,0.1448 -0.9935,0.4325 -0.3467,0.3467 -0.4921,0.7932 -0.4337,1.3414 0.028,0.1735 1.0822,2.4939 3.1583,6.9658 -0.2891,0.2308 -0.3611,0.4902 -0.216,0.7784 0.1148,0.2308 0.5332,0.9959 1.2552,2.2933 0.4601,0.3741 1.1384,0.5624 2.0333,0.5624 0.8643,0 1.0089,-0.4615 0.4329,-1.3845 -2.3375,-3.9518 -3.5054,-6.1721 -3.5054,-6.6628 0,-0.0868 0.2741,0.2449 0.8224,0.9952 1.4128,1.9324 3.3023,4.0241 5.6678,6.2737 0.0865,-0.0584 0.5908,-0.1585 1.5137,-0.3016 0.6636,-0.0868 0.9956,-0.3598 0.9956,-0.8195 0,-0.919 -0.7645,-2.3134 -2.293,-4.1803 -1.5287,-1.8677 -2.2935,-3.5634 -2.2935,-5.0859 0,-0.5746 0.1724,-0.8615 0.5196,-0.8615 0.201,0 0.4462,0.0851 0.7342,0.2566 1.0397,0.6284 2.1931,1.8127 3.4616,3.5563 0.2605,0.3419 0.491,0.5131 0.6923,0.5131 0.1454,0 0.2165,-0.0859 0.2165,-0.2571 0,-0.0859 -0.0147,-0.1721 -0.0425,-0.2577" /><path
       id="path46"
       style="fill:#f42121;fill-opacity:1;fill-rule:nonzero;stroke:none"
       d="m 255.0152,151.467 c -0.0289,-0.2596 -0.2962,-0.5054 -0.8005,-0.7359 -0.5054,-0.2307 -0.858,-0.4036 -1.059,-0.519 -0.4054,-0.2593 -0.686,-0.519 -0.8447,-0.7784 -0.1591,-0.2596 -0.1948,-0.534 -0.1075,-0.8226 0.0865,-0.231 0.2004,-0.3605 0.3456,-0.3889 0.1437,-0.0292 0.1876,-0.1154 0.1298,-0.2596 -0.0587,-0.1452 -0.1451,-0.2024 -0.2602,-0.1732 -0.5763,0.1145 -1.0749,0.4113 -1.4922,0.8866 -0.4184,0.4763 -0.5836,0.9873 -0.4972,1.5361 0.0578,0.3169 0.1579,0.519 0.303,0.6058 0.1438,0.0864 0.468,0.1582 0.9726,0.2163 0.5043,0.0572 1.4063,0.2012 2.7048,0.4328 0.0579,0 0.1508,0.0428 0.2807,0.1293 0.1301,0.0873 0.2233,0.1301 0.282,0.1301 0.0576,0 0.0714,-0.0865 0.0428,-0.2594 z m -2.2929,-10.8592 c -0.6925,-1.0389 -1.8029,-2.4956 -3.331,-4.3702 -0.7501,-0.7492 -1.5293,-1.1251 -2.3363,-1.1251 -1.9046,0 -2.8562,1.1101 -2.8562,3.3319 0,1.2977 0.288,2.5092 0.8654,3.634 -0.2588,0.1434 -0.303,0.3314 -0.1296,0.5624 0.576,0.75 1.1387,1.5143 1.6875,2.2935 0.807,1.0086 1.3983,1.5712 1.7739,1.6863 0.1151,0.0292 0.2299,0.0443 0.3459,0.0443 0.4906,0 1.1678,-0.3615 2.0335,-1.0823 -3.0285,-3.0283 -4.5144,-5.8555 -4.4572,-8.4801 0.0292,-0.5769 0.2739,-0.8649 0.7368,-0.8649 0.4328,0 0.879,0.2013 1.341,0.6058 1.2388,1.0672 2.6238,2.6535 4.1531,4.7588 0.4036,0.5768 0.6772,0.8657 0.8223,0.8657 0.057,0 0.0867,-0.0428 0.0867,-0.1301 0,-0.3753 -0.2452,-0.9516 -0.7358,-1.73" /></g></svg>